/* XPM */
static char *_0bf59cf55904b92c0c41729a759c793[] = {
/* columns rows colors chars-per-pixel */
"100 50 47 1 ",
"  c None",
". c black",
"X c #130000",
"o c #1A0000",
"O c #200000",
"+ c #260000",
"@ c #320000",
"# c #390000",
"$ c #400000",
"% c #460000",
"& c #530000",
"* c #5A0000",
"= c #5C0000",
"- c #5A0E0E",
"; c #620000",
": c #6A0000",
"> c #6C0000",
", c #6C1111",
"< c #800000",
"1 c #920000",
"2 c #9F0000",
"3 c #801414",
"4 c #A00000",
"5 c #A60000",
"6 c #A70000",
"7 c #BD0000",
"8 c #A03939",
"9 c #C40000",
"0 c #C50000",
"q c #CA0000",
"w c #CC0000",
"e c #D30000",
"r c #D60000",
"t c #E70000",
"y c #EA0000",
"u c #F50000",
"i c #FC0000",
"p c red",
"a c #FF2929",
"s c #FF5252",
"d c #FF7474",
"f c #FF8080",
"g c #FF8383",
"h c #FF9393",
"j c #FFA5A5",
"k c #FFB9B9",
"l c white",
/* pixels */
"                                                                                                    ",
"                                                                                                    ",
"                                                                                                    ",
"                                                                                                    ",
"                                                                                                    ",
"                                                                                                    ",
"                                                                                                    ",
"                                                                                                    ",
"                                                                                                    ",
"                                                                                                    ",
"                                                                                                    ",
"                                                                                                    ",
"                                                                                                    ",
"                                                                                                    ",
"                                                                                                    ",
"                                                                                                    ",
"                                                                                                    ",
"           ...     ....                                                                             ",
"           ...     ....                                                                             ",
"         .*ppp..  .rrrr..........................................................                   ",
"         >4ppp>> o>ttrr&%.>>>>>>>>>>>>>>>>>>>>>>>>>>>>>>>>>>>>>>>>>>>>>>>>>>>>>>>                   ",
"       ..ppppppp.$ppprr96.ppppppppppppppppppppppppppppppppppppppppppppppppppppppp.                  ",
"     ..33gsppppp<2pppyyw7;<<ppppppppppppppppppppppppppppppppppppppppppppppppppppp<O.                ",
"     ..aaljppppppppppppre9..pppppppppppppppppppppppppppppppppppppppppppppppppppppp$.                ",
"     ..aaljppppppppppppre9..pppppppppppppppppppppppppppppppppppppppppppppppppppppp$.                ",
"     ..aaljppppppppppppre9..pppppppppppppppppppppppppppppppppppppppppppppppppppppp$.                ",
"     ..aalllpppppppppppre9..pppppppppppppppppppppppppppppppppppppppppppppppppppppp$.                ",
"     ..33hkldgpppppppyyw7;<<pppppppppppppppppppppppppppppppppppppppppppppppppppppp$.                ",
"       ..adlllppppppprr96.pppppppppppppppppppppppppppppppppppppppppppppppppppppppp$.                ",
"         ,8gllppppppprr&=1pppppppppppppppppppppppppppppppppppppppppppppppppppppppp$.                ",
"         .-allppppppprr.+ppppppppppppppppppppppppppppppppppppppppppppppppppppppppp$.                ",
"           .ppppppprr..ppppppppppppppppppppppppppppppppppppppppppppppppppppppppppp$.                ",
"           .99pppiu66##pppppppppppppppppppppppppppppppppppppppppppppppppppppppppp9@.                ",
"            ..pppur..pppppppppppppppppppppppppppppppppppppppppppppppppppppppppppp.                  ",
"            ..<<yq:..<<<<<<<<<<<<<<<<<<<<<<<<<<<<<<<<<<<<<<<<<<<<<<<<<<<<<<<<<<<<.                  ",
"              ..r2...............................................................                   ",
"                oX                                                                                  ",
"                ..                                                                                  ",
"                                                                                                    ",
"                                                                                                    ",
"                                                                                                    ",
"                                                                                                    ",
"                                                                                                    ",
"                                                                                                    ",
"                                                                                                    ",
"                                                                                                    ",
"                                                                                                    ",
"                                                                                                    ",
"                                                                                                    ",
"                                                                                                    "
};
